# xmcd
#
# Track frame offsets:
#	182
#	21695
#	41190
#	60852
#	81960
#	102392
#	123052
#	143475
#	161247
#	182510
#	205520
#	224567
#	258257
#	300555
#	319457
#
# Disc length: 4512 seconds
#
# Revision: 1
# Processed by: cddbd v1.4PL0 Copyright (c) Steve Scherf et al.
# Submitted via: audiograbber 1.82.02
#
DISCID=d3119e0f
DTITLE=Deborah Cox - One Wish
DYEAR=1999
DGENRE=R&B
TTITLE0=September
TTITLE1=It's Over Now
TTITLE2=Nobody's Supposed To Be Here
TTITLE3=We Can't Be Friends
TTITLE4=Couldn't We
TTITLE5=One Wish
TTITLE6=I Won't Give Up
TTITLE7=Just When I Think I'm Over You
TTITLE8=Love Is On The Way
TTITLE9=I Never Knew
TTITLE10=One Day You Will
TTITLE11=Its' Over Now (Hex Hector Retro-Future Club Mix)
TTITLE12=Nobody's Supposed To Be Here (Club 69 Club Mix)
TTITLE13=Things Just Ain't The Same (Dance Mix)
TTITLE14=Unknown
EXTD=
EXTT0=
EXTT1=
EXTT2=
EXTT3=
EXTT4=
EXTT5=
EXTT6=
EXTT7=
EXTT8=
EXTT9=
EXTT10=
EXTT11=
EXTT12=
EXTT13=
EXTT14=
PLAYORDER=
